<svg xmlns="http://www.w3.org/2000/svg" width="64" height="64" fill="none" viewBox="0 0 64 64"><rect width="64" height="64" fill="#43BFD6" fill-opacity=".2" rx="32"/><path fill="#43BFD6" d="M26 30.5C25.1716 30.5 24.5 31.1716 24.5 32C24.5 32.8284 25.1716 33.5 26 33.5V30.5ZM38 33.5C38.8284 33.5 39.5 32.8284 39.5 32C39.5 31.1716 38.8284 30.5 38 30.5V33.5ZM26 33.5H38V30.5H26V33.5Z"/><path fill="#43BFD6" d="M36.5 24.5C35.6716 24.5 35 25.1716 35 26C35 26.8284 35.6716 27.5 36.5 27.5V24.5ZM36.5 36.5C35.6716 36.5 35 37.1716 35 38C35 38.8284 35.6716 39.5 36.5 39.5V36.5ZM36.5 27.5H39.5V24.5H36.5V27.5ZM39.5 36.5H36.5V39.5H39.5V36.5ZM44 32C44 34.4853 41.9853 36.5 39.5 36.5V39.5C43.6421 39.5 47 36.1421 47 32H44ZM39.5 27.5C41.9853 27.5 44 29.5147 44 32H47C47 27.8579 43.6421 24.5 39.5 24.5V27.5Z"/><path fill="#43BFD6" d="M27.5 27.5C28.3284 27.5 29 26.8284 29 26C29 25.1716 28.3284 24.5 27.5 24.5V27.5ZM27.5 39.5C28.3284 39.5 29 38.8284 29 38C29 37.1716 28.3284 36.5 27.5 36.5V39.5ZM27.5 24.5H24.5V27.5H27.5V24.5ZM24.5 39.5H27.5V36.5H24.5V39.5ZM17 32C17 36.1421 20.3579 39.5 24.5 39.5V36.5C22.0147 36.5 20 34.4853 20 32H17ZM24.5 24.5C20.3579 24.5 17 27.8579 17 32H20C20 29.5147 22.0147 27.5 24.5 27.5V24.5Z"/></svg>