<svg xmlns="http://www.w3.org/2000/svg" width="64" height="64" fill="none" viewBox="0 0 64 64"><rect width="64" height="64" fill="#D9F2F7" rx="32"/><path fill="#43BFD6" d="M24.3 29.26H21.86L19.34 36.22L16.76 29.26H14.2L18.16 39H20.48L24.3 29.26ZM30.5678 39V26.04H28.4878C28.2078 27.4 26.9278 28.44 25.0678 28.48V30.12H28.2078V39H30.5678ZM33.2111 37.5C33.2111 38.4 33.9311 39.12 34.8311 39.12C35.7311 39.12 36.4711 38.4 36.4711 37.5C36.4711 36.6 35.7311 35.86 34.8311 35.86C33.9311 35.86 33.2111 36.6 33.2111 37.5ZM40.6784 32.52C40.6784 30.88 40.9584 29.62 41.5984 28.82C42.0384 28.24 42.6584 27.86 43.5984 27.86C44.5384 27.86 45.1384 28.24 45.5984 28.82C46.2184 29.62 46.4984 30.88 46.4984 32.52C46.4984 34.16 46.2184 35.42 45.5984 36.22C45.1384 36.8 44.5384 37.18 43.5984 37.18C42.6584 37.18 42.0384 36.8 41.5984 36.22C40.9784 35.42 40.6784 34.16 40.6784 32.52ZM38.2984 32.52C38.2984 34.24 38.5784 35.86 39.4584 37.18C40.2984 38.44 41.6584 39.3 43.5984 39.3C45.5384 39.3 46.8784 38.44 47.7184 37.18C48.5984 35.86 48.8784 34.24 48.8784 32.52C48.8784 30.8 48.5984 29.18 47.7184 27.86C46.8784 26.6 45.5384 25.74 43.5984 25.74C41.6584 25.74 40.2984 26.6 39.4584 27.86C38.5784 29.18 38.2984 30.8 38.2984 32.52Z"/></svg>